<svg width="256" height="256" viewBox="0 0 256 256" fill="none" xmlns="http://www.w3.org/2000/svg">
  <defs>
    <linearGradient id="g1" x1="40" y1="36" x2="220" y2="220" gradientUnits="userSpaceOnUse">
      <stop offset="0" stop-color="#4fd1ff"/>
      <stop offset="0.52" stop-color="#6d8bff"/>
      <stop offset="1" stop-color="#ffbf73"/>
    </linearGradient>
    <linearGradient id="g2" x1="56" y1="58" x2="200" y2="200" gradientUnits="userSpaceOnUse">
      <stop offset="0" stop-color="#a8f3ff"/>
      <stop offset="1" stop-color="#ffd1a1"/>
    </linearGradient>
    <filter id="glow" x="-40%" y="-40%" width="180%" height="180%">
      <feGaussianBlur stdDeviation="5" result="blur"/>
      <feColorMatrix in="blur" type="matrix" values="1 0 0 0 0  0 1 0 0 0  0 0 1 0 0  0 0 0 0.8 0" result="soft"/>
      <feMerge>
        <feMergeNode in="soft"/>
        <feMergeNode in="SourceGraphic"/>
      </feMerge>
    </filter>
  </defs>

  <rect width="256" height="256" rx="56" fill="#0f1119"/>
  <path d="M82 74C61 74 44 91 44 112c0 17 10 31 25 37l34 12 15 21 21 8 7 18 24-6 23 6 5-18 17-5 10-23 21-12 8-25-11-24-5-24-20-13-5-18-21-8-19-17-22 8-24-6-22 7-20-6-20 8z" fill="url(#g1)" opacity="0.14"/>

  <g filter="url(#glow)" stroke-linecap="round" stroke-linejoin="round">
    <path d="M82 74C61 74 44 91 44 112c0 17 10 31 25 37l34 12 15 21 21 8 7 18 24-6 23 6 5-18 17-5 10-23 21-12 8-25-11-24-5-24-20-13-5-18-21-8-19-17-22 8-24-6-22 7-20-6-20 8z" stroke="url(#g1)" stroke-width="8"/>
    <path d="M86 80c-18 0-33 14-33 32 0 14 9 26 22 31l37 13 16 22 18 7 6 17 20-5 21 5 4-16 17-5 8-21 20-11 7-22-10-21-5-22-18-12-6-17-18-7-17-15-20 7-21-5-19 6-18-5-16 7z" stroke="url(#g2)" stroke-width="2.5" opacity="0.7"/>

    <path d="M92 92l30 18 28-17 28 10 18 26-5 26-23 16-2 23" stroke="url(#g2)" stroke-width="4"/>
    <path d="M88 142l31-18 25 14 18-7 24 10 16 19" stroke="url(#g2)" stroke-width="4"/>
    <path d="M120 72v24l-21 16" stroke="url(#g2)" stroke-width="4"/>
    <path d="M166 78v26l18 12" stroke="url(#g2)" stroke-width="4"/>
    <path d="M106 168l26-18 28 8 18-10" stroke="url(#g2)" stroke-width="4"/>

    <circle cx="86" cy="92" r="10" fill="#0f1119" stroke="url(#g2)" stroke-width="4"/>
    <circle cx="138" cy="75" r="10" fill="#0f1119" stroke="url(#g2)" stroke-width="4"/>
    <circle cx="188" cy="104" r="10" fill="#0f1119" stroke="url(#g2)" stroke-width="4"/>
    <circle cx="95" cy="154" r="10" fill="#0f1119" stroke="url(#g2)" stroke-width="4"/>
    <circle cx="162" cy="165" r="10" fill="#0f1119" stroke="url(#g2)" stroke-width="4"/>

    <path d="M124 112c0-14 11-25 25-25h4c14 0 25 11 25 25v16c0 14-11 25-25 25h-4c-14 0-25-11-25-25v-16z" fill="#101522" stroke="url(#g2)" stroke-width="4"/>
    <path d="M142 103h7c11 0 20 9 20 20v2c0 11-9 20-20 20h-7v-42z" fill="url(#g1)" opacity="0.88"/>
    <path d="M102 113h18M102 124h12M102 135h16" stroke="url(#g2)" stroke-width="4"/>
    <path d="M156 113h18M156 124h12M156 135h16" stroke="url(#g2)" stroke-width="4"/>
    <path d="M128 110l10 10-10 10-10-10 10-10z" fill="#0f1119" stroke="url(#g2)" stroke-width="4"/>
  </g>
</svg>